<?xml version="1.0" encoding="UTF-8"?>
<svg width="30px" height="30px" viewBox="0 0 30 30" version="1.1" xmlns="http://www.w3.org/2000/svg" xmlns:xlink="http://www.w3.org/1999/xlink">
    <!-- Generator: Sketch 55.2 (78181) - https://sketchapp.com -->
    <title>youtube</title>
    <desc>Created with Sketch.</desc>
    <g id="Extras" stroke="none" stroke-width="1" fill="none" fill-rule="evenodd">
        <g id="Style-Guide" transform="translate(-167.000000, -1939.000000)" fill-rule="nonzero">
            <g id="Social" transform="translate(17.000000, 1939.000000)">
                <g id="youtube" transform="translate(150.000000, 0.000000)">
                    <path d="M14.9649658,0 C23.2303767,0 29.9300342,6.70058219 29.9300342,14.9650685 C29.9300342,23.2295548 23.2303767,29.9300342 14.9649658,29.9300342 C6.69955479,29.9300342 0,23.2294521 0,14.9650685 C0,6.70068493 6.69965753,0 14.9649658,0 Z" id="Path" fill="#C4302B"></path>
                    <path d="M14.6039384,12.1599658 C15.0771575,12.1599658 15.447637,12.0093493 15.7188699,11.7952397 C15.9882534,11.5801027 16.1229452,11.2873973 16.1229452,10.9113699 L16.1229452,8.64226027 C16.1229452,8.30835616 15.9854795,8.03239726 15.7113699,7.82013699 C15.435411,7.60777397 15.0828082,7.50215753 14.6506849,7.50215753 C14.1783904,7.50215753 13.8005137,7.60222603 13.5208562,7.80328767 C13.240274,8.00527397 13.0999315,8.27465753 13.0999315,8.61606164 L13.0999315,10.8925685 C13.0999315,11.2666438 13.2364726,11.562226 13.5095548,11.7839384 C13.782637,12.0056507 14.1484932,12.1599658 14.6039384,12.1599658 Z M14.1092466,8.72650685 C14.1092466,8.64041096 14.1541438,8.57126712 14.2430137,8.51609589 C14.3328082,8.46277397 14.4488014,8.43657534 14.5909932,8.43657534 C14.7462329,8.43657534 14.8715753,8.46277397 14.9660959,8.51609589 C15.0615411,8.57126712 15.1082877,8.6405137 15.1082877,8.72650685 L15.1082877,10.8833219 C15.1082877,10.9899658 15.0615411,11.0741096 14.9679452,11.1349315 C14.8744521,11.1948288 14.7491096,11.2256507 14.5909932,11.2256507 C14.4366781,11.2256507 14.3169863,11.1966781 14.2336644,11.1358562 C14.1513699,11.0768836 14.1092466,10.9927397 14.1092466,10.8833219 L14.1092466,8.72650685 L14.1092466,8.72650685 Z M17.7354452,12.1571918 C17.9018836,12.1571918 18.0711986,12.0617466 18.247089,11.9664041 C18.4248288,11.8691096 18.5940411,11.7269178 18.7568836,11.5417808 L18.7568836,12.0459247 L19.6407534,12.0459247 L19.6407534,7.49558219 L18.7568836,7.49558219 L18.7568836,10.9496918 C18.674589,11.047911 18.5829452,11.1292808 18.484726,11.1938014 C18.3846575,11.2573973 18.302363,11.2901712 18.2378425,11.2901712 C18.1546233,11.2901712 18.0938014,11.2667466 18.0582534,11.217226 C18.0208562,11.1695548 18.0003082,11.0918836 18.0003082,10.9852397 L18.0003082,7.49650685 L17.1182877,7.49650685 L17.1182877,11.2985959 C17.1182877,11.5698288 17.1716096,11.7728425 17.2735274,11.9075342 C17.3771918,12.0430479 17.5305822,12.1571918 17.7354452,12.1571918 Z M20.3056849,14.0381507 L9.62434932,14.0381507 C7.92585616,14.0381507 6.54996575,15.3616438 6.54996575,16.9919178 L6.54996575,19.4892123 C6.54996575,21.120411 7.92585616,22.4439041 9.62434932,22.4439041 L20.3055822,22.4439041 C22.0031507,22.4439041 23.3799658,21.120411 23.3799658,19.4892123 L23.3799658,16.9919178 C23.3799658,15.3615411 22.0032534,14.0381507 20.3056849,14.0381507 Z M11.2134247,16.5728425 L10.2688356,16.5728425 L10.2688356,20.4843493 L9.35506849,20.4843493 L9.35506849,16.5728425 L8.41037671,16.5728425 L8.41037671,15.9059589 L11.2135274,15.9059589 C11.2134247,15.9059589 11.2134247,16.5728425 11.2134247,16.5728425 Z M14.0325,20.5385959 L13.047637,20.5385959 L13.047637,20.1326712 C12.8643493,20.282363 12.6763356,20.3973288 12.4780479,20.4740753 C12.2825342,20.5545205 12.0917466,20.5928425 11.9066096,20.5928425 C11.6784247,20.5928425 11.5081849,20.5376712 11.3921918,20.4264041 C11.2780479,20.3169863 11.2191781,20.1523973 11.2191781,19.9325342 L11.2191781,16.8441781 L12.2040411,16.8441781 L12.2040411,19.677226 C12.2040411,19.7651712 12.224589,19.8269178 12.2639384,19.8661644 C12.3069863,19.9063356 12.3752055,19.9241096 12.4669521,19.9241096 C12.5380479,19.9241096 12.6315411,19.8988356 12.7418836,19.8464384 C12.8531507,19.7949658 12.9551712,19.7295205 13.0477397,19.6481507 L13.0477397,16.8431507 L14.0326027,16.8431507 C14.0325,16.8431507 14.0325,20.5385959 14.0325,20.5385959 Z M17.7606164,19.8352397 C17.7606164,20.0775 17.6838699,20.2617123 17.5315068,20.3917808 C17.3808904,20.5217466 17.1583562,20.5853425 16.8711986,20.5853425 C16.6794863,20.5853425 16.5092466,20.5609932 16.3614041,20.5114726 C16.2127397,20.4619521 16.0723973,20.3852055 15.9452055,20.2794863 L15.9452055,20.5413699 L14.9621918,20.5413699 L14.9621918,15.9059589 L15.9452055,15.9059589 L15.9452055,17.3996918 C16.0780479,17.2968493 16.217363,17.2164041 16.3623288,17.1621575 C16.5109932,17.1069863 16.6606849,17.0807877 16.8113014,17.0807877 C17.1190068,17.0807877 17.3537671,17.1528082 17.5155822,17.297774 C17.6792466,17.4436644 17.7606164,17.6578767 17.7606164,17.9375342 C17.7606164,17.9374315 17.7606164,19.8352397 17.7606164,19.8352397 Z M21.5075342,18.7923288 L19.6930479,18.7923288 L19.6930479,19.460137 C19.6930479,19.6463014 19.7229452,19.7753425 19.7856164,19.8482877 C19.8492123,19.9203082 19.9567808,19.9558562 20.1073973,19.9558562 C20.2664384,19.9558562 20.3749315,19.9250342 20.4385274,19.8642123 C20.500274,19.8024658 20.5339726,19.6686986 20.5339726,19.4592123 L20.5339726,19.2983219 L21.5094863,19.2983219 L21.5094863,19.4797603 C21.5094863,19.842637 21.3925685,20.1158219 21.1512329,20.3000342 C20.9136986,20.4833219 20.5582192,20.5749658 20.0859247,20.5749658 C19.6603767,20.5749658 19.3255479,20.4776712 19.0814384,20.2831849 C18.8382534,20.0905479 18.7147603,19.8211644 18.7147603,19.4806849 L18.7147603,17.8887329 C18.7147603,17.5828767 18.8494521,17.3303425 19.1188356,17.1367808 C19.3872945,16.9441438 19.7314726,16.847774 20.1570205,16.847774 C20.5909932,16.847774 20.9248973,16.9375685 21.1587329,17.1162329 C21.3916438,17.2948973 21.507637,17.5529795 21.507637,17.887911 C21.5075342,17.887911 21.5075342,18.7923288 21.5075342,18.7923288 Z M10.6841096,12.1703425 L11.7999658,12.1703425 L11.7999658,9.45133562 L13.0991096,5.61657534 L11.9645548,5.61657534 L11.2742466,8.23736301 L11.2031507,8.23736301 L10.4792466,5.61657534 L9.3540411,5.61657534 L10.6840068,9.57390411 C10.6841096,9.57390411 10.6841096,12.1703425 10.6841096,12.1703425 Z M16.3520548,17.6231507 L16.1453425,17.6568493 L15.9442808,17.7607192 L15.9442808,19.8913356 C16.0228767,19.9465068 16.1004452,19.9886301 16.1753425,20.0119521 L16.4101027,20.0484247 C16.5297945,20.0484247 16.6168151,20.025 16.672911,19.9754795 C16.7280822,19.9278082 16.7570548,19.8492123 16.7570548,19.7416438 L16.7570548,17.9748288 C16.7570548,17.857911 16.7242808,17.7708904 16.655137,17.7120205 C16.5840411,17.6531507 16.4839726,17.6231507 16.3520548,17.6231507 Z" id="Shape" fill="#FFFFFF"></path>
                    <path d="M20.1597945,17.467911 C20.0082534,17.467911 19.9006849,17.4997603 19.8343151,17.5652055 C19.7688699,17.6278767 19.7370205,17.7345205 19.7370205,17.8831849 L19.7370205,18.2405137 L20.5759932,18.2405137 L20.5759932,17.8831849 C20.5759932,17.7345205 20.5413699,17.6288014 20.4759247,17.5652055 C20.4113014,17.4997603 20.3038356,17.467911 20.1597945,17.467911 Z" id="Path" fill="#FFFFFF"></path>
                </g>
            </g>
        </g>
    </g>
</svg>