<svg width="34px" height="34px" viewBox="0 0 18 18" version="1.1" xmlns="http://www.w3.org/2000/svg" xmlns:xlink="http://www.w3.org/1999/xlink"><defs><path d="M14.71,14 L14.43,13.73 C15.41,12.59 16,11.11 16,9.5 C16,5.91 13.09,3 9.5,3 C5.91,3 3,5.91 3,9.5 C3,13.09 5.91,16 9.5,16 C11.11,16 12.59,15.41 13.73,14.43 L14,14.71 L14,15.5 L18.2928939,19.7843081 C18.6835323,20.1741652 19.3161514,20.1738486 19.7063993,19.7836007 L19.7836007,19.7063993 C20.1738486,19.3161514 20.1741652,18.6835323 19.7843081,18.2928939 L15.5,14 L14.71,14 Z M5,9.5 C5,7.01 7.01,5 9.5,5 C11.99,5 14,7.01 14,9.5 C14,11.99 11.99,14 9.5,14 C7.01,14 5,11.99 5,9.5 Z" id="path-1"></path></defs><g id="Extras" stroke="none" stroke-width="1" fill="none" fill-rule="evenodd"><g id="Style-Guide" transform="translate(-74.000000, -1898.000000)"><g id="Atoms-/-icons-/-System-/-Search" transform="translate(71.000000, 1895.000000)"><mask id="mask-2" fill="white"><use xlink:href="#path-1"></use></mask><use id="Mask" fill="#C2D1D9" fill-rule="evenodd" xlink:href="#path-1"></use><g id="Atoms-/-Colors-/-Uai" mask="url(#mask-2)" fill="#1973B4" fill-rule="evenodd">
<rect style="fill:#e65245;" id="Background" x="0" y="0" width="24" height="24"></rect></g></g></g></g></svg>