<svg width="80" height="60" viewBox="0 0 80 60" fill="none" xmlns="http://www.w3.org/2000/svg">
<path fill-rule="evenodd" clip-rule="evenodd" d="M0 0H80V60H0V0ZM76.3267 44.2231H70.8529V38.5793C70.8529 36.5818 69.1913 34.9625 67.2483 34.9625C65.3053 34.9625 63.6436 36.5816 63.6436 38.5793V44.2231H59.1739C57.2311 44.2231 55.6553 45.692 55.6553 47.6892C55.6553 49.6867 57.2309 51.1554 59.1739 51.1554H63.6436V56.2107C63.6436 58.2079 65.3053 59.8274 67.2483 59.8274C69.1913 59.8274 70.8529 58.2081 70.8529 56.2107V51.1554H76.3267C78.2697 51.1554 79.8455 49.6867 79.8455 47.6892C79.8455 45.692 78.2699 44.2231 76.3267 44.2231ZM44.1087 37.6752V22.161C35.7957 22.161 29.0957 29.1296 29.0957 37.6747V37.6752H44.1087Z" fill="white"/>
<path fill-rule="evenodd" clip-rule="evenodd" d="M29.147 0C45.2451 0 58.2953 13.4135 58.2953 29.9606C58.2953 30.3495 58.2877 30.7379 58.2733 31.1237C58.1377 34.7823 55.2116 37.6759 51.6505 37.6759H41.0309C42.4058 35.443 43.2019 32.7975 43.2019 29.9606C43.2019 21.982 36.9093 15.5135 29.1467 15.5135C21.3853 15.5135 15.0923 21.982 15.0923 29.9606C15.0923 37.9205 21.3577 44.3775 29.0956 44.406V44.4065H29.14H29.1544H39.596C47.9077 44.4065 54.6877 51.3746 54.6888 59.9182V59.9204H29.147H29.0958V59.9197C13.0223 59.8903 0 46.4885 0 29.9606C0 13.4135 13.0505 0 29.147 0Z" fill="#ED7D00"/>
</svg>
