<?xml version="1.0" standalone="no"?>
<!DOCTYPE svg PUBLIC "-//W3C//DTD SVG 20010904//EN"
 "http://www.w3.org/TR/2001/REC-SVG-20010904/DTD/svg10.dtd">
<svg version="1.0" xmlns="http://www.w3.org/2000/svg"
 width="1280.000000pt" height="988.000000pt" viewBox="0 0 1280.000000 988.000000"
 preserveAspectRatio="xMidYMid meet">
<metadata>
Created by potrace 1.15, written by Peter Selinger 2001-2017
</metadata>
<g transform="translate(0.000000,988.000000) scale(0.100000,-0.100000)"
fill="#000000" stroke="none">
<path d="M0 9605 c0 -151 1 -275 3 -275 2 0 37 -12 78 -26 410 -144 935 -266
1454 -338 315 -44 630 -72 1320 -121 1070 -75 1606 -141 2238 -276 1064 -227
2065 -760 2641 -1408 415 -466 659 -962 742 -1506 20 -135 23 -458 5 -595 -30
-224 -97 -466 -180 -644 -133 -287 -361 -548 -583 -666 -66 -35 -76 -48 -21
-25 66 28 159 83 240 143 375 279 635 765 703 1312 17 144 12 417 -11 574
-154 1053 -893 1992 -2094 2663 -370 207 -736 366 -1204 523 -514 172 -767
241 -2051 559 -551 137 -946 251 -1229 357 l-63 24 -994 0 -994 0 0 -275z"/>
<path d="M2915 9828 c184 -62 365 -116 880 -264 638 -184 822 -240 1120 -339
1047 -348 1747 -700 2339 -1177 645 -520 1089 -1117 1305 -1753 109 -323 159
-647 148 -964 -23 -677 -360 -1290 -877 -1595 -339 -201 -784 -217 -1118 -41
-136 72 -213 141 -295 265 -27 39 -20 13 15 -57 37 -77 145 -195 233 -258 81
-58 209 -118 317 -149 284 -82 578 -45 878 110 385 200 700 567 865 1009 47
126 97 325 121 480 26 167 26 568 1 740 -129 868 -611 1732 -1339 2401 -649
596 -1386 1065 -2457 1563 l-173 81 -1057 -1 -1056 -1 150 -50z"/>
<path d="M5370 9819 c783 -416 1256 -713 1715 -1082 351 -283 741 -669 973
-965 93 -118 284 -403 354 -527 281 -496 451 -1012 499 -1520 15 -151 6 -493
-16 -635 -95 -618 -382 -1106 -836 -1416 -144 -99 -321 -183 -449 -214 -43
-10 -50 -15 -35 -21 13 -5 15 -8 5 -8 -8 -1 -44 -6 -80 -11 -94 -14 -415 16
-538 50 -37 10 -68 17 -70 15 -8 -7 142 -48 222 -60 74 -12 77 -13 31 -14 -70
-1 -265 41 -356 76 -236 92 -386 238 -440 428 -22 76 -25 32 -4 -49 34 -131
139 -271 265 -357 116 -78 281 -146 443 -181 88 -19 133 -22 322 -23 249 0
345 14 536 81 252 88 433 208 650 430 454 468 732 1201 756 1999 15 521 -86
1028 -325 1625 -293 732 -731 1388 -1521 2278 l-144 162 -391 0 c-330 0 -388
-2 -376 -14 8 -7 89 -74 180 -148 294 -241 500 -427 771 -697 439 -440 726
-799 993 -1245 257 -429 422 -822 512 -1219 56 -244 75 -421 80 -722 3 -154 1
-316 -4 -360 -8 -70 -9 -55 -10 120 -1 235 -13 372 -48 585 -100 601 -316
1124 -706 1707 -239 358 -477 642 -834 993 -302 298 -579 533 -1006 856 l-190
144 -522 0 -521 -1 115 -60z"/>
<path d="M7622 9768 c755 -908 1196 -1614 1473 -2357 130 -351 235 -774 276
-1116 20 -161 17 -565 -4 -745 -88 -725 -372 -1365 -792 -1785 -253 -254 -512
-400 -830 -471 -153 -35 -422 -44 -583 -20 -287 43 -510 143 -673 305 -117
116 -165 212 -183 371 -2 19 -3 -8 -2 -62 3 -92 5 -101 50 -192 141 -291 526
-497 997 -535 180 -15 341 0 524 46 799 205 1499 1142 1684 2255 89 534 53
1116 -111 1773 -177 709 -479 1382 -1069 2380 l-154 260 -348 3 -348 2 93
-112z"/>
<path d="M8562 9603 c405 -754 641 -1271 808 -1773 207 -621 301 -1164 303
-1755 1 -334 -23 -544 -98 -850 -243 -992 -883 -1802 -1605 -2033 -177 -57
-253 -67 -490 -67 -185 1 -230 4 -320 24 -331 71 -593 215 -751 412 -84 105
-125 202 -139 334 -8 78 -9 78 -6 -35 2 -103 6 -123 33 -187 91 -215 311 -405
611 -528 215 -88 391 -120 647 -119 156 0 209 5 295 23 445 94 870 373 1231
807 379 455 660 1069 773 1686 46 250 59 423 60 798 0 350 -7 474 -45 770 -88
685 -245 1260 -682 2500 l-94 265 -340 3 -341 2 150 -277z"/>
<path d="M9290 9874 c0 -3 36 -126 81 -272 258 -852 313 -1045 394 -1377 152
-625 220 -1107 232 -1650 17 -789 -99 -1385 -386 -1981 -268 -555 -645 -1008
-1081 -1297 -132 -88 -347 -194 -476 -235 -336 -106 -696 -102 -1042 13 -386
129 -665 367 -757 645 -19 57 -26 185 -13 250 l7 35 -16 -35 c-23 -54 -28
-173 -9 -253 18 -77 71 -189 121 -257 33 -45 153 -166 210 -213 62 -50 208
-140 298 -182 180 -85 387 -142 589 -164 460 -50 904 91 1364 434 155 115 456
416 584 583 230 299 399 590 551 944 249 583 363 1249 363 2133 0 592 -28 915
-165 1945 -34 250 -73 563 -88 695 l-27 240 -367 3 c-202 1 -367 0 -367 -4z"/>
<path d="M10253 9733 c8 -173 24 -384 72 -918 71 -791 87 -1084 87 -1565 0
-582 -40 -1048 -128 -1505 -133 -687 -436 -1341 -877 -1890 -103 -128 -374
-400 -497 -497 -285 -227 -614 -394 -915 -464 -113 -27 -133 -28 -355 -29
-207 0 -248 3 -343 23 -537 113 -979 432 -1086 786 -25 82 -28 210 -6 281 18
61 13 70 -8 16 -64 -158 -35 -382 75 -593 223 -427 695 -668 1305 -668 426 0
836 119 1232 355 819 489 1446 1437 1755 2652 168 662 262 1318 396 2778 59
634 121 1116 175 1363 l5 22 -446 0 -447 0 6 -147z"/>
<path d="M11372 9673 c-98 -402 -156 -736 -292 -1678 -167 -1154 -300 -1852
-450 -2375 -164 -569 -396 -1083 -685 -1515 -350 -523 -766 -907 -1251 -1157
-696 -358 -1521 -368 -2049 -24 -399 260 -611 770 -454 1089 15 33 22 53 14
47 -25 -21 -73 -131 -86 -198 -7 -39 -10 -102 -6 -165 21 -379 321 -783 715
-964 299 -137 669 -189 1053 -148 496 52 948 227 1369 527 796 568 1371 1441
1804 2739 35 107 124 392 196 634 463 1545 882 2531 1434 3368 l18 27 -640 0
-640 0 -50 -207z"/>
<path d="M12689 9264 c-239 -357 -396 -630 -603 -1044 -269 -541 -450 -992
-698 -1740 -278 -841 -428 -1223 -653 -1665 -425 -834 -960 -1450 -1608 -1851
-499 -309 -1149 -473 -1682 -424 -524 48 -921 260 -1160 620 -222 332 -263
675 -108 902 23 34 28 46 14 34 -40 -36 -94 -129 -119 -205 -34 -104 -36 -293
-4 -423 156 -636 760 -1032 1609 -1055 500 -14 915 82 1394 322 661 332 1263
904 1794 1705 207 313 347 555 615 1065 477 906 875 1568 1242 2066 l78 107
-2 873 -3 873 -106 -160z"/>
<path d="M0 8334 l0 -617 133 7 c363 19 648 54 1392 172 1294 205 1776 254
2485 254 886 -1 1562 -110 2185 -355 157 -61 510 -235 650 -320 349 -212 690
-503 905 -775 279 -351 460 -745 525 -1144 23 -135 30 -353 16 -491 -80 -819
-606 -1404 -1200 -1337 -186 22 -378 101 -542 224 -66 50 -83 59 -63 35 73
-87 187 -171 317 -232 582 -276 1196 38 1492 763 114 279 170 649 146 953 -27
335 -103 602 -266 934 -213 434 -574 848 -1031 1180 -578 421 -1319 731 -2104
879 -650 123 -1213 171 -2265 196 -801 19 -1092 32 -1465 66 -404 36 -858 111
-1179 194 -63 17 -118 30 -122 30 -5 0 -9 -277 -9 -616z"/>
<path d="M3765 8020 c-657 -42 -1309 -146 -2445 -390 -423 -90 -797 -157
-1060 -189 -96 -12 -194 -24 -218 -27 l-42 -5 0 -540 c0 -312 4 -539 9 -539
20 0 381 128 591 210 124 48 455 180 735 293 831 335 1227 473 1710 598 620
159 1104 223 1690 223 351 0 488 -10 750 -55 776 -131 1469 -470 1950 -953
301 -302 491 -617 599 -993 114 -400 81 -861 -89 -1218 -113 -236 -287 -426
-480 -523 -250 -125 -557 -98 -883 78 -41 22 -76 40 -80 40 -12 0 133 -102
193 -135 145 -82 338 -135 485 -135 647 0 1158 818 1055 1690 -83 704 -531
1365 -1252 1848 -286 192 -636 360 -1003 482 -368 123 -691 185 -1200 231
-155 13 -841 20 -1015 9z"/>
<path d="M4535 7554 c-1026 -73 -1804 -297 -3120 -897 -126 -58 -369 -169
-539 -246 -338 -155 -590 -265 -764 -332 l-112 -43 0 -539 c0 -442 2 -538 13
-534 46 18 393 249 917 612 622 431 972 655 1355 867 780 432 1543 690 2325
784 199 24 618 25 820 1 1090 -130 1918 -630 2295 -1386 124 -247 177 -477
178 -761 1 -257 -42 -460 -138 -651 -224 -444 -597 -577 -1132 -404 -57 18
-103 31 -103 28 0 -2 46 -26 103 -52 188 -89 323 -123 482 -124 231 0 400 76
575 259 166 174 274 398 332 686 30 150 33 480 5 627 -202 1076 -1280 1905
-2712 2087 -113 14 -656 27 -780 18z"/>
<path d="M12660 7080 c-336 -462 -691 -1015 -1170 -1825 -242 -408 -342 -570
-478 -770 -512 -754 -1059 -1303 -1647 -1654 -565 -336 -1092 -485 -1655 -468
-373 12 -668 82 -960 229 -259 130 -439 290 -571 509 -174 291 -214 650 -97
883 17 33 53 84 81 114 64 67 31 53 -39 -17 -60 -60 -103 -136 -136 -241 -20
-66 -23 -95 -23 -245 0 -155 2 -179 28 -269 54 -193 142 -347 286 -498 157
-165 319 -281 546 -389 442 -211 943 -275 1482 -189 824 132 1645 601 2438
1395 252 252 466 495 1230 1400 181 215 424 497 540 629 115 131 227 258 248
281 l37 43 -2 634 -3 633 -135 -185z"/>
<path d="M4845 7154 c-828 -62 -1686 -356 -2560 -877 -325 -194 -698 -450
-1146 -789 -660 -497 -932 -700 -1031 -769 l-108 -74 0 -615 0 -615 193 195
c106 107 344 357 528 555 741 797 1072 1119 1524 1480 776 622 1610 1036 2345
1164 316 56 698 76 982 52 771 -66 1404 -375 1787 -871 337 -437 449 -1012
282 -1446 -96 -248 -258 -395 -510 -461 -82 -22 -119 -26 -251 -26 -85 -1
-188 4 -229 11 -40 7 -76 11 -78 9 -7 -8 222 -66 306 -78 101 -14 272 -6 356
16 147 40 290 138 383 261 291 386 316 1008 63 1529 -394 809 -1383 1332
-2551 1349 -129 2 -257 2 -285 0z"/>
<path d="M5055 6783 c-517 -43 -1005 -182 -1478 -419 -586 -293 -1133 -709
-1728 -1311 -291 -294 -373 -385 -1029 -1138 -301 -346 -492 -556 -677 -746
l-143 -146 0 -793 c0 -717 1 -791 16 -779 26 22 265 326 376 479 217 301 416
611 823 1284 652 1078 1026 1581 1581 2126 534 523 1136 882 1812 1081 332 97
609 134 952 126 388 -8 658 -69 965 -216 232 -111 386 -221 555 -398 377 -392
540 -898 415 -1291 -97 -305 -389 -497 -810 -530 l-100 -8 78 -8 c112 -12 349
-1 427 19 36 9 106 36 155 60 142 69 242 165 314 304 232 449 84 1126 -349
1593 -359 388 -892 635 -1517 703 -129 14 -513 19 -638 8z"/>
<path d="M5225 6470 c-572 -71 -1104 -276 -1646 -635 -566 -376 -1026 -857
-1524 -1593 -250 -371 -431 -677 -805 -1364 -369 -676 -518 -930 -723 -1238
-165 -247 -377 -531 -494 -663 l-33 -37 0 -470 0 -470 428 0 c414 0 428 1 439
20 28 43 204 403 257 522 159 360 245 594 526 1433 228 680 280 828 383 1090
275 704 617 1327 974 1776 137 172 470 505 640 641 476 378 972 623 1468 723
306 62 685 60 961 -5 365 -85 654 -247 899 -501 257 -268 384 -558 373 -849
-4 -96 -10 -128 -36 -197 -84 -226 -273 -392 -539 -473 -39 -12 -93 -25 -120
-30 l-48 -8 58 -1 c83 -1 248 34 340 74 122 52 184 94 272 180 141 141 206
301 207 515 3 333 -150 673 -436 968 -298 308 -667 494 -1146 578 -109 19
-559 28 -675 14z"/>
<path d="M5420 6174 c-841 -80 -1751 -628 -2341 -1409 -322 -426 -617 -982
-847 -1595 -132 -350 -255 -751 -437 -1415 -224 -818 -377 -1295 -529 -1655
-20 -46 -36 -88 -36 -92 0 -4 243 -8 540 -8 l540 0 0 23 c0 12 7 76 15 142 13
113 37 395 85 985 48 591 104 1048 171 1398 192 1009 542 1795 1071 2408 484
561 1213 942 1905 996 385 30 790 -63 1048 -240 210 -145 361 -381 411 -642
19 -99 19 -296 -1 -388 -47 -224 -171 -399 -340 -478 -81 -38 -72 -42 37 -14
270 68 480 252 557 489 92 284 -41 677 -333 979 -254 264 -570 424 -981 498
-88 16 -434 27 -535 18z"/>
<path d="M5535 5883 c-462 -57 -846 -201 -1236 -464 -720 -484 -1255 -1369
-1503 -2486 -128 -575 -178 -1090 -211 -2143 -12 -382 -26 -716 -31 -752 l-6
-38 402 0 403 0 -7 48 c-86 618 -133 1007 -163 1352 -22 249 -25 1068 -5 1255
43 397 104 705 198 996 176 544 504 1075 866 1400 638 572 1472 785 2094 534
290 -116 487 -349 548 -647 20 -96 20 -251 1 -343 -31 -149 -139 -311 -243
-364 -52 -27 -55 -37 -4 -16 155 65 276 214 329 405 14 50 18 102 18 230 0
193 -17 272 -91 429 -157 333 -474 534 -940 596 -98 13 -342 18 -419 8z"/>
<path d="M12628 5508 c-90 -95 -361 -389 -603 -653 -1079 -1179 -1362 -1457
-1835 -1811 -1053 -788 -2157 -1064 -3073 -768 -438 142 -793 387 -1005 696
-72 105 -136 257 -169 401 -25 110 -22 329 5 434 40 156 126 287 231 355 25
15 38 28 30 28 -28 0 -134 -76 -182 -131 -59 -66 -120 -187 -149 -294 -18 -66
-21 -107 -21 -240 0 -178 12 -241 77 -402 188 -461 722 -879 1319 -1032 842
-217 1817 -29 2824 543 460 261 1031 683 2019 1492 154 126 376 306 492 398
l212 169 0 493 c0 272 -2 494 -4 494 -2 0 -78 -78 -168 -172z"/>
<path d="M5625 5620 c-477 -54 -920 -260 -1316 -612 -394 -352 -739 -959 -893
-1573 -95 -382 -131 -706 -130 -1200 1 -576 50 -1027 206 -1892 l61 -343 343
0 342 0 -30 78 c-91 238 -262 778 -337 1067 -202 777 -259 1457 -171 2052 63
433 210 846 425 1192 216 350 524 626 896 805 161 78 268 116 420 150 441 99
817 17 1061 -231 166 -167 244 -354 236 -559 -4 -86 -9 -110 -36 -167 -17 -36
-51 -86 -76 -112 -53 -52 -51 -56 7 -16 145 99 221 263 220 476 -1 316 -167
597 -444 749 -83 45 -250 101 -363 121 -112 19 -317 26 -421 15z"/>
<path d="M5655 5319 c-333 -35 -719 -207 -1014 -453 -114 -95 -286 -279 -363
-387 -275 -387 -458 -912 -508 -1459 -13 -146 -13 -520 0 -670 57 -654 246
-1360 588 -2200 l59 -145 317 -3 c174 -1 316 0 316 3 0 3 -51 92 -113 198
-834 1413 -1065 2561 -726 3602 204 627 760 1172 1354 1326 78 21 113 24 270
24 203 0 260 -12 406 -86 343 -172 508 -558 336 -784 -25 -33 -26 -36 -7 -20
86 73 122 148 128 275 5 114 -11 188 -67 305 -126 266 -393 441 -722 475 -112
11 -138 11 -254 -1z"/>
<path d="M5716 5100 c-238 -30 -481 -139 -731 -328 -86 -66 -291 -273 -362
-367 -132 -175 -244 -373 -313 -552 -67 -174 -127 -441 -149 -667 -14 -138
-14 -472 -1 -607 74 -749 385 -1521 977 -2429 l98 -150 319 0 c302 0 318 1
305 17 -7 10 -43 50 -79 88 -162 174 -419 486 -551 670 -428 593 -677 1152
-774 1734 -95 574 -37 1023 195 1496 123 252 246 423 428 596 195 185 401 298
620 340 95 18 310 7 397 -21 215 -69 384 -207 445 -367 28 -72 31 -171 7 -227
-23 -52 -17 -54 16 -4 104 160 17 424 -196 598 -78 64 -219 134 -318 159 -93
24 -239 33 -333 21z"/>
<path d="M5670 4876 c-211 -47 -412 -167 -592 -354 -350 -363 -566 -906 -585
-1468 -9 -257 25 -513 108 -818 190 -700 599 -1352 1298 -2068 l164 -168 356
1 c338 0 355 1 331 17 -231 158 -547 411 -765 611 -527 485 -949 1107 -1114
1643 -188 612 -150 1323 99 1818 102 202 275 406 429 505 167 108 313 150 516
150 162 0 227 -14 351 -75 106 -52 166 -105 205 -185 26 -54 30 -72 27 -123
-4 -73 7 -71 22 3 44 210 -183 445 -489 510 -86 18 -282 18 -361 1z"/>
<path d="M5746 4674 c-424 -91 -738 -456 -865 -1004 -73 -312 -73 -724 0
-1085 100 -502 313 -918 720 -1410 109 -133 445 -467 589 -586 220 -184 474
-370 707 -518 l112 -71 503 0 503 0 -200 85 c-545 233 -1057 521 -1464 822
-684 508 -1172 1270 -1317 2058 -10 56 -18 170 -21 300 -5 181 -2 226 15 330
64 376 235 645 523 827 375 236 841 199 899 -73 9 -41 9 -39 6 24 -3 59 -9 76
-40 121 -60 88 -170 152 -308 181 -88 19 -271 18 -362 -1z"/>
<path d="M5978 4530 c-82 -13 -232 -65 -308 -107 -250 -138 -444 -365 -538
-633 -57 -163 -67 -233 -67 -475 0 -235 6 -288 56 -488 184 -740 786 -1537
1509 -1997 430 -274 1036 -559 1643 -774 l157 -56 1313 2 1312 3 -130 28
c-318 69 -645 133 -1180 231 -480 88 -567 105 -810 151 -350 67 -667 133 -800
166 -770 193 -1407 485 -1925 885 -144 111 -431 397 -531 529 -247 326 -390
638 -456 995 -24 133 -24 477 0 607 100 534 403 871 800 891 166 8 268 -26
351 -119 35 -39 44 -45 37 -25 -33 86 -80 133 -165 165 -65 24 -187 34 -268
21z"/>
<path d="M5965 4436 c-241 -46 -454 -221 -575 -470 -99 -205 -135 -398 -127
-686 11 -402 122 -742 357 -1092 487 -725 1353 -1235 2545 -1498 273 -60 534
-102 995 -160 1273 -160 2066 -300 2698 -476 l194 -54 374 0 374 0 0 460 c0
362 -3 460 -13 460 -6 0 -89 9 -182 19 -705 81 -1435 90 -2863 36 -459 -18
-695 -19 -957 -5 -1077 57 -1913 325 -2525 810 -138 109 -358 331 -448 452
-350 469 -497 1051 -381 1513 27 110 106 268 178 357 205 254 537 361 725 233
32 -21 35 -22 26 -5 -16 29 -73 69 -130 91 -67 25 -178 32 -265 15z"/>
<path d="M12583 4277 c-114 -84 -372 -277 -573 -428 -1381 -1040 -2005 -1419
-2768 -1679 -431 -148 -841 -220 -1252 -220 -548 0 -1008 124 -1400 378 -129
83 -194 136 -319 257 -171 167 -286 326 -368 514 -41 96 -43 71 -2 -46 152
-435 426 -746 841 -954 323 -162 650 -250 1068 -288 146 -14 548 -14 705 -1
366 31 761 108 1124 220 455 140 1060 419 2056 948 681 361 836 443 968 508
l137 69 0 437 c0 241 -2 438 -4 438 -2 0 -98 -69 -213 -153z"/>
<path d="M6020 4336 c-218 -62 -431 -272 -517 -510 -43 -119 -55 -193 -60
-361 -4 -143 -2 -189 15 -290 79 -460 316 -883 676 -1207 597 -537 1391 -822
2481 -889 207 -13 731 -7 945 11 629 51 1594 114 2010 131 282 11 1084 6 1188
-7 l42 -6 0 491 0 491 -22 -5 c-13 -3 -108 -21 -213 -40 -284 -54 -695 -147
-1465 -334 -494 -120 -877 -206 -1246 -280 -487 -98 -737 -125 -1184 -125
-484 0 -856 45 -1265 154 -772 205 -1361 614 -1604 1115 -205 422 -209 935
-10 1325 107 209 245 320 398 320 32 0 77 -7 100 -15 62 -22 40 0 -25 24 -63
24 -172 27 -244 7z"/>
<path d="M6109 4276 c-62 -16 -140 -68 -190 -125 -98 -110 -180 -304 -213
-500 -21 -125 -21 -372 0 -505 56 -357 237 -687 505 -923 398 -351 930 -577
1604 -682 197 -31 362 -43 655 -48 767 -12 1182 66 2775 524 950 273 1144 326
1533 418 l22 5 0 435 c0 239 -2 435 -5 435 -17 0 -424 -189 -915 -425 -1044
-502 -1685 -779 -2116 -914 -994 -310 -2052 -319 -2804 -24 -568 224 -915 556
-1083 1040 -132 377 -119 807 30 1063 33 55 115 143 160 171 40 25 123 48 178
50 l40 1 -40 9 c-54 11 -82 10 -136 -5z"/>
<path d="M6160 4224 c-104 -28 -192 -108 -254 -231 -29 -58 -76 -213 -75 -247
0 -11 9 8 19 42 31 110 96 227 167 303 61 65 98 88 213 137 38 16 -3 14 -70
-4z"/>
<path d="M6446 3968 c33 -58 155 -171 234 -215 80 -45 227 -97 300 -107 33 -5
24 0 -36 18 -173 53 -323 142 -443 263 -54 55 -68 66 -55 41z"/>
<path d="M6370 3943 c0 -36 70 -162 121 -218 55 -59 117 -107 194 -149 55 -31
47 -23 -45 44 -94 67 -184 170 -230 262 -22 44 -40 71 -40 61z"/>
<path d="M5812 3460 c0 -14 2 -19 5 -12 2 6 2 18 0 25 -3 6 -5 1 -5 -13z"/>
</g>
</svg>
