<svg version="1.1" viewBox="0 0 65 40" xmlns="http://www.w3.org/2000/svg" xmlns:cc="http://creativecommons.org/ns#" xmlns:dc="http://purl.org/dc/elements/1.1/" xmlns:rdf="http://www.w3.org/1999/02/22-rdf-syntax-ns#"><metadata><rdf:RDF><cc:Work rdf:about=""><dc:format>image/svg+xml</dc:format><dc:type rdf:resource="http://purl.org/dc/dcmitype/StillImage"/></cc:Work></rdf:RDF></metadata><defs><radialGradient id="b" cx="165.36" cy="132.73" r="143.23" fx="151.65" fy="74.93" gradientTransform="matrix(.806 0 0 .806 -114.8 -8.604)" gradientUnits="userSpaceOnUse">
<stop stop-color="#0086C9" offset="0"/>
<stop stop-color="#0182C6" offset=".261"/>
<stop stop-color="#0276BD" offset=".5183"/>
<stop stop-color="#0563AD" offset=".7734"/>
<stop stop-color="#084C9C" offset=".9857"/>
</radialGradient>
<radialGradient id="a" cx="135.76" cy="169.83" r="102.97" gradientTransform="matrix(.9382 0 0 .8902 -103.64 -40.992)" gradientUnits="userSpaceOnUse">
<stop stop-color="#0053A2" offset=".2796"/>
<stop stop-color="#0057A5" offset=".4293"/>
<stop stop-color="#0062AF" offset=".5652"/>
<stop stop-color="#0074BF" offset=".6951"/>
<stop stop-color="#0089D1" offset=".8011"/>
<stop stop-color="#fff" offset="1"/>
</radialGradient>
</defs>
<g transform="matrix(.22569 0 0 .22569 27.186 -4.4875)" stroke-width="4.4308">
<path class="st0" d="m23.54 20.125c48.73 0 88.47 39.7 88.47 88.37 0 48.68-39.74 88.38-88.47 88.38-48.72 0-88.47-39.7-88.47-88.38 0-48.67 39.74-88.37 88.47-88.37z" clip-rule="evenodd" fill="url(#b)" fill-rule="evenodd"/>
<path class="st1" d="m104.74 97.305c0 42.19-36.04 76.38-80.5 76.38s-80.51-34.2-80.51-76.38c0-42.19 36.05-76.39 80.51-76.39 44.45 0 80.5 34.2 80.5 76.39z" fill="url(#a)" opacity=".25"/>
<path class="st2" d="m137.48 73.615-31.81 4.09 0.41 2.55c0.05 0.28 0.29 0.49 0.58 0.47 1.32-0.07 4.93-0.15 6.7 0.91 2.19 1.31 1.12 5.67 1.12 5.67l-12.66 38.21s-1.65 4.59-1.02 8.62c-2.5 1.03-8.16 3.17-11.96 3.17-5 0-6.98-1.97-8.83-4.58-1.85-2.62-0.79-6.34-0.79-6.34l14.82-49.06c0.17-0.57-0.26-1.15-0.86-1.15h-20.99c-0.44 0-0.83 0.26-1.01 0.67l-4.24 10.03s-1.35-2.18-2.35-3.28c-1-1.09-2.54-3.06-5.78-4.8-3.24-1.75-8.48-3.93-14.8-4.36-6.32-0.44-12.3 0.22-22.16 2.62-9.88 2.4-17.72 7.42-24.02 12.66-6.31 5.24-9.73 13.1-11.22 17.03s-1.06 11.35-1.06 11.35-3.16 4.58-5.24 7.21c-2.08 2.62-5.21 5.68-7.16 5.68-1.96 0-2.11-3.27-1.52-5.68 0.56-2.27 11.09-43.77 12.23-48.29 0.05-0.21-0.11-0.4-0.32-0.39l-21.74 0.21c-0.18 0-0.33 0.12-0.38 0.3l-5.81 21.98s-5.79 10.04-8.65 13.54c-2.86 3.49-6.68 8.08-9.4 10.92s-5.18 4.15-6.89 4.36c-1.71 0.22-3.4-1.31-2.71-4.81 0.59-2.94 8.91-35.89 11.49-46.11l0.31-1.21c0.22-0.86-0.5-1.68-1.38-1.57l-31.64 3.92-0.17 1.68c-0.07 0.73 0.46 1.38 1.19 1.43 0.94 0.08 2.29 0.24 3.72 0.59 2.67 0.65 3.15 5.02 2.43 8.3-0.72 3.27-7.64 29.03-8.87 33.62s-1.6 9.17-0.08 11.13c1.52 1.97 4.15 6.12 12.21 6.33 8.07 0.22 12.94-4.8 18.12-8.95 5.18-4.14 16.19-18.12 16.19-18.12s-2.24 8.95-3 13.75c-0.76 4.81 0.36 8.95 2.73 10.7 2.37 1.74 6 3.06 12.01 2.4s11.74-3.71 15.9-7.21c4.15-3.49 7.63-10.92 7.63-10.92s1.49 3.49 3.05 5.68 4.16 5.89 9.71 8.74c5.55 2.84 13.52 5.9 23.33 6.11 9.81 0.22 13.98-1.31 21.59-4.8 7.62-3.49 13.09-10.26 13.09-10.26s0.67 3.71 2.7 6.11c2.03 2.41 5.21 5.24 11.29 6.99 6.09 1.75 12.31 2.84 19.21 2.4 6.1-0.39 13.08-3.16 14.62-3.8 0.92 0.45 1.85 0.75 2.65 0.96 2.5 0.66 7.77 0.87 10.61-0.44 2.85-1.31 7.38-4.36 9.99-7.2 2.27-2.47 6.47-9.54 7.54-11.36 0.14-0.24 0.04-0.53-0.2-0.65l-1.6-0.8c-0.32-0.16-0.7-0.05-0.89 0.25-0.99 1.6-4 6.4-5.53 8.2-1.84 2.18-3.23 3.06-5.44 1.53s-1.26-5.24-1.26-5.24l16.55-51.32c0.08-0.21-0.08-0.4-0.28-0.37zm-77.65 25.7c-1.02 7.64-6.22 18.34-10.46 24.45-4.25 6.11-9.23 9.82-13.63 11.13-4.41 1.31-9.74 2.19-16.37-0.65-6.64-2.84-8.18-8.52-6.5-18.12 1.68-9.61 7.69-20.62 11.5-25.32 5.59-6.92 18.31-12.63 28.02-8.08 4.69 2.2 8.45 8.95 7.44 16.59z" fill="#ffd31a"/>
<path class="st2" d="m133.7 50.495c-5.71 0.36-10.8 4.81-11.34 9.89-0.53 5.09 3.68 8.94 9.39 8.58s10.8-4.81 11.33-9.89c0.54-5.09-3.67-8.94-9.38-8.58z" fill="#ffd31a"/>
</g>
</svg>