<svg xmlns="http://www.w3.org/2000/svg" width="20" height="20" viewBox="0 0 20 20">
    <defs>
        <linearGradient id="fpzatmi9ya" x1="0%" x2="100%" y1="50%" y2="50%">
            <stop offset="0%" stop-color="#004E78"/>
            <stop offset="100%" stop-color="#0081AC"/>
        </linearGradient>
    </defs>
    <g fill="none" fill-rule="evenodd">
        <g>
            <path fill="#EDEDED" fill-rule="nonzero" d="M4.447 10.024c0-4.253 3.423-7.702 7.646-7.702s7.647 3.449 7.647 7.702c0 4.255-3.424 7.703-7.647 7.703-4.223 0-7.646-3.448-7.646-7.703z" transform="translate(-317.000000, -1851.000000) translate(317.000000, 1851.000000)"/>
            <path fill="url(#fpzatmi9ya)" fill-rule="nonzero" d="M5.499 10.024c0-3.669 2.952-6.643 6.594-6.643 3.643 0 6.595 2.974 6.595 6.643 0 3.669-2.952 6.644-6.595 6.644-3.642 0-6.594-2.975-6.594-6.644z" transform="translate(-317.000000, -1851.000000) translate(317.000000, 1851.000000)"/>
            <path fill="#006193" fill-rule="nonzero" d="M4.578 7.045l1.42-.04.538 1.2s-1.126-.27-1.958-1.16z" transform="translate(-317.000000, -1851.000000) translate(317.000000, 1851.000000)"/>
            <path fill="#009237" fill-rule="nonzero" stroke="#EDEDED" stroke-linecap="round" stroke-linejoin="round" stroke-width=".5" d="M5.785 5.595s1.881 1.26 4.97 1.156c3.791-.128 5.926 2.182 5.926 6.162 0 0-2.008-1.97-4.778-1.925-4.58.072-6.13-3.735-6.118-5.393z" transform="translate(-317.000000, -1851.000000) translate(317.000000, 1851.000000)"/>
            <path fill="#006193" fill-rule="nonzero" d="M.146 5.903C.134 7.56 1.689 11.18 6.268 11.109c2.772-.045 4.547 1.76 4.547 1.76.006-.721-.041-1.228-.153-1.819-2.245-.502-3.09-1.277-4.068-2.633-.863-.23-1.688-.735-2.226-1.372C1.681 6.965.146 5.903.146 5.903z" transform="translate(-317.000000, -1851.000000) translate(317.000000, 1851.000000)"/>
            <path fill="#7EB62E" fill-rule="nonzero" d="M2.727 3.285s1.88 1.259 4.97 1.155c3.791-.129 6.034 2.184 6.002 6.55 0 0-2.083-2.357-4.855-2.314-4.578.073-6.13-3.734-6.117-5.39z" opacity=".5" transform="translate(-317.000000, -1851.000000) translate(317.000000, 1851.000000)"/>
            <path fill="#7EB62E" fill-rule="nonzero" d="M2.727 3.285c-.007.905.453 2.455 1.62 3.66.218.006.443.006.674-.002.35-.011.493-.006.815.018-.17-.518-.261-1.25-.258-1.62 0 0 1.822 1.317 4.986 1.257.796-.016 1.556.014 2.201.195-.922-1.819-2.564-2.438-5.068-2.353-3.09.104-4.97-1.155-4.97-1.155z" transform="translate(-317.000000, -1851.000000) translate(317.000000, 1851.000000)"/>
            <path stroke="#EDEDED" stroke-linecap="round" stroke-linejoin="round" stroke-width=".5" d="M2.727 3.285s1.88 1.259 4.97 1.155c3.791-.129 6.11 2.092 6.078 6.777 0 0-1.937-2.509-4.931-2.54-4.58-.05-6.13-3.735-6.117-5.392z" transform="translate(-317.000000, -1851.000000) translate(317.000000, 1851.000000)"/>
            <path fill="#006193" fill-rule="nonzero" d="M.05 5.787s1.881 1.26 4.97 1.156c3.792-.128 5.958 1.798 5.927 6.162 0 0-2.008-1.968-4.78-1.925C1.59 11.252.038 7.446.051 5.787z" opacity=".5" transform="translate(-317.000000, -1851.000000) translate(317.000000, 1851.000000)"/>
            <path stroke="#EDEDED" stroke-linecap="round" stroke-linejoin="round" stroke-width=".5" d="M.05 5.787s1.881 1.26 4.97 1.156c3.792-.128 5.958 1.798 5.927 6.162 0 0-1.657-1.925-4.78-1.925-4.579 0-6.129-3.734-6.116-5.393z" transform="translate(-317.000000, -1851.000000) translate(317.000000, 1851.000000)"/>
        </g>
    </g>
</svg>
